<svg version="1.1" xmlns="http://www.w3.org/2000/svg" viewBox="0 0 341 192" width="341" height="192">
  <!-- svg-source:excalidraw -->
  
  <defs>
    <style>
      @font-face {
        font-family: "Virgil";
        src: url("https://excalidraw.com/Virgil.woff2");
      }
      @font-face {
        font-family: "Cascadia";
        src: url("https://excalidraw.com/Cascadia.woff2");
      }
    </style>
  </defs>
  <rect x="0" y="0" width="341" height="192" fill="#ffffff"/><g stroke-linecap="round"><g transform="translate(35.21124839782715 12) rotate(0 0 85)"><path d="M0 0 C0 28.33, 0 141.67, 0 170 M0 0 C0 28.33, 0 141.67, 0 170" stroke="#000000" stroke-width="1" fill="none"/></g></g><g stroke-linecap="round"><g transform="translate(23 174) rotate(0 124.10562419891357 0)"><path d="M0 0 C41.37 0, 206.84 0, 248.21 0 M0 0 C41.37 0, 206.84 0, 248.21 0" stroke="#000000" stroke-width="1" fill="none"/></g></g><g stroke-linecap="round"><g transform="translate(261 10) rotate(0 0 85)"><path d="M0 0 C0 28.33, 0 141.67, 0 170 M0 0 C0 28.33, 0 141.67, 0 170" stroke="#000000" stroke-width="1" fill="none"/></g></g><g transform="translate(16 129) rotate(0 137.5 -31.5)" stroke="none"><path fill="#000000" d="M -0.75,-2.00 Q -0.75,-2.00 1.58,-2.76 3.92,-3.52 5.43,-4.17 6.94,-4.83 8.12,-5.44 9.31,-6.04 10.75,-6.63 12.19,-7.21 13.28,-7.75 14.37,-8.28 15.62,-9.02 16.86,-9.76 18.28,-10.63 19.69,-11.50 21.17,-12.43 22.65,-13.36 24.14,-14.32 25.64,-15.28 26.88,-16.05 28.12,-16.82 29.60,-17.49 31.09,-18.16 32.30,-19.16 33.51,-20.16 34.27,-20.91 35.02,-21.66 36.89,-23.24 38.76,-24.82 40.25,-26.58 41.74,-28.34 43.07,-29.59 44.39,-30.83 45.51,-31.94 46.64,-33.05 48.03,-34.33 49.43,-35.62 50.68,-36.59 51.93,-37.57 52.90,-38.47 53.88,-39.36 55.68,-40.40 57.48,-41.44 58.77,-42.18 60.06,-42.93 61.40,-43.38 62.74,-43.83 64.90,-44.52 67.06,-45.22 68.19,-45.35 69.31,-45.48 70.68,-45.52 72.05,-45.56 73.50,-45.27 74.96,-44.98 77.20,-44.10 79.44,-43.22 81.35,-42.21 83.26,-41.19 85.47,-39.84 87.67,-38.48 89.27,-37.31 90.86,-36.14 92.24,-35.48 93.63,-34.82 95.07,-34.27 96.52,-33.72 97.61,-33.18 98.71,-32.63 100.22,-31.59 101.72,-30.54 102.76,-30.14 103.80,-29.74 104.78,-29.26 105.75,-28.79 106.82,-28.41 107.88,-28.03 109.04,-27.65 110.21,-27.27 112.20,-27.10 114.20,-26.94 116.14,-26.76 118.08,-26.58 120.07,-26.45 122.05,-26.31 123.57,-26.54 125.09,-26.78 127.35,-27.58 129.62,-28.38 131.66,-29.77 133.70,-31.15 136.61,-33.71 139.52,-36.27 141.90,-38.77 144.29,-41.26 146.50,-43.49 148.70,-45.72 150.18,-47.48 151.66,-49.23 152.48,-50.78 153.30,-52.33 153.93,-53.43 154.56,-54.54 155.01,-55.51 155.47,-56.49 156.06,-57.97 156.64,-59.44 158.19,-60.52 159.73,-61.60 161.02,-62.41 162.30,-63.21 163.41,-63.60 164.52,-64.00 166.49,-64.56 168.46,-65.12 170.12,-65.45 171.78,-65.78 173.02,-65.81 174.26,-65.85 175.33,-65.87 176.40,-65.89 177.73,-65.87 179.05,-65.86 180.83,-65.90 182.61,-65.94 184.85,-65.58 187.09,-65.21 188.48,-64.66 189.86,-64.12 191.20,-62.58 192.54,-61.05 193.59,-60.02 194.63,-58.99 195.61,-58.02 196.59,-57.05 197.87,-55.75 199.14,-54.45 199.93,-53.30 200.73,-52.15 201.42,-51.32 202.12,-50.48 203.05,-49.06 203.99,-47.65 205.08,-46.84 206.17,-46.03 207.71,-45.61 209.26,-45.20 210.95,-45.17 212.64,-45.13 214.59,-45.12 216.54,-45.11 218.22,-45.12 219.90,-45.13 221.17,-45.53 222.44,-45.94 223.41,-46.42 224.39,-46.90 225.37,-47.43 226.35,-47.96 227.50,-48.11 228.66,-48.26 229.89,-48.31 231.13,-48.37 232.47,-48.38 233.81,-48.39 235.03,-48.40 236.24,-48.41 237.59,-48.02 238.94,-47.63 239.97,-47.15 241.01,-46.68 242.40,-45.77 243.79,-44.86 244.74,-44.16 245.68,-43.46 247.30,-42.37 248.92,-41.29 250.19,-40.37 251.46,-39.45 252.56,-38.50 253.66,-37.54 254.65,-36.56 255.64,-35.58 256.87,-34.51 258.10,-33.44 259.11,-32.81 260.12,-32.17 261.13,-31.67 262.14,-31.16 263.32,-30.12 264.49,-29.08 265.82,-28.04 267.14,-27.00 268.35,-25.74 269.57,-24.48 271.72,-22.58 273.88,-20.68 275.50,-18.70 277.12,-16.72 277.27,-16.32 277.43,-15.91 277.44,-15.47 277.45,-15.03 277.33,-14.61 277.20,-14.19 276.95,-13.84 276.69,-13.48 276.34,-13.22 275.98,-12.97 275.57,-12.84 275.15,-12.71 274.71,-12.72 274.27,-12.73 273.86,-12.88 273.45,-13.03 273.11,-13.30 272.77,-13.57 272.53,-13.94 272.29,-14.31 272.19,-14.73 272.08,-15.16 272.11,-15.59 272.15,-16.03 272.32,-16.43 272.49,-16.83 272.78,-17.16 273.07,-17.49 273.45,-17.70 273.83,-17.92 274.26,-18.00 274.69,-18.09 275.12,-18.03 275.56,-17.97 275.95,-17.78 276.34,-17.59 276.65,-17.28 276.96,-16.97 277.16,-16.58 277.35,-16.19 277.41,-15.76 277.47,-15.32 277.39,-14.89 277.31,-14.46 277.10,-14.08 276.89,-13.70 276.56,-13.41 276.24,-13.11 275.84,-12.94 275.43,-12.76 275.00,-12.73 274.56,-12.69 274.14,-12.79 273.71,-12.90 273.34,-13.13 272.97,-13.37 272.70,-13.71 272.42,-14.05 272.42,-14.05 272.42,-14.05 271.37,-15.41 270.31,-16.77 269.09,-17.78 267.86,-18.79 266.68,-19.67 265.50,-20.55 264.73,-21.34 263.97,-22.14 261.99,-23.23 260.01,-24.32 259.01,-25.33 258.02,-26.34 256.60,-27.22 255.18,-28.11 254.26,-29.05 253.35,-29.99 252.42,-30.55 251.49,-31.10 249.80,-32.56 248.11,-34.02 247.07,-34.68 246.03,-35.34 245.03,-36.21 244.02,-37.08 242.26,-38.21 240.49,-39.35 239.38,-39.94 238.26,-40.53 237.19,-41.05 236.11,-41.58 234.97,-41.59 233.83,-41.59 232.54,-41.59 231.26,-41.59 230.21,-42.04 229.17,-42.48 228.05,-41.92 226.94,-41.37 226.05,-40.74 225.15,-40.11 223.91,-39.84 222.67,-39.58 220.60,-39.23 218.52,-38.89 216.52,-38.89 214.52,-38.89 212.53,-38.92 210.54,-38.95 208.66,-39.13 206.79,-39.31 205.06,-39.85 203.32,-40.39 202.22,-41.41 201.12,-42.44 200.18,-43.27 199.24,-44.10 198.32,-45.23 197.39,-46.36 195.96,-48.11 194.52,-49.87 193.72,-50.64 192.92,-51.40 191.93,-52.42 190.94,-53.44 189.94,-54.50 188.94,-55.55 188.04,-56.94 187.14,-58.33 185.98,-58.98 184.82,-59.63 183.72,-59.84 182.62,-60.04 180.84,-60.08 179.07,-60.12 177.77,-60.09 176.47,-60.07 174.42,-60.05 172.37,-60.02 171.20,-59.92 170.04,-59.82 168.14,-59.36 166.23,-58.90 164.91,-58.57 163.58,-58.25 161.89,-57.53 160.19,-56.80 159.50,-55.69 158.81,-54.57 158.12,-53.56 157.42,-52.55 156.69,-51.69 155.96,-50.83 154.93,-49.11 153.90,-47.39 152.39,-45.51 150.87,-43.63 148.73,-41.37 146.60,-39.11 144.18,-36.45 141.77,-33.80 138.79,-31.00 135.81,-28.21 133.46,-26.45 131.12,-24.70 128.48,-23.54 125.84,-22.38 123.94,-22.05 122.03,-21.71 120.02,-21.60 118.01,-21.49 115.96,-21.37 113.91,-21.24 112.47,-21.30 111.02,-21.36 109.73,-21.58 108.45,-21.80 106.48,-22.47 104.50,-23.14 103.60,-23.83 102.70,-24.52 101.12,-25.21 99.54,-25.89 98.57,-26.92 97.61,-27.96 96.32,-29.01 95.03,-30.07 93.47,-30.73 91.91,-31.40 90.29,-32.25 88.66,-33.10 87.24,-34.13 85.81,-35.15 83.61,-36.26 81.41,-37.37 79.73,-38.09 78.04,-38.81 75.08,-39.57 72.13,-40.34 70.91,-40.31 69.70,-40.29 68.02,-40.20 66.34,-40.11 64.28,-39.55 62.22,-38.99 61.00,-38.33 59.77,-37.67 58.37,-36.76 56.97,-35.85 55.83,-34.87 54.69,-33.89 53.66,-33.15 52.63,-32.42 51.36,-31.03 50.08,-29.64 49.00,-28.51 47.92,-27.39 46.75,-26.08 45.58,-24.77 44.73,-23.86 43.87,-22.95 42.86,-21.82 41.86,-20.69 40.15,-19.33 38.44,-17.98 36.69,-16.60 34.93,-15.22 33.88,-14.66 32.83,-14.10 31.57,-13.59 30.30,-13.08 29.12,-12.44 27.94,-11.80 26.46,-10.79 24.99,-9.78 23.51,-8.79 22.04,-7.79 20.58,-6.84 19.12,-5.89 17.65,-5.04 16.17,-4.19 14.94,-3.71 13.70,-3.22 12.37,-2.75 11.03,-2.28 9.75,-1.75 8.46,-1.23 6.86,-0.57 5.27,0.07 3.01,1.03 0.75,2.00 0.50,2.06 0.25,2.12 -0.00,2.12 -0.26,2.12 -0.51,2.06 -0.76,1.99 -0.99,1.87 -1.22,1.75 -1.41,1.58 -1.60,1.41 -1.75,1.20 -1.89,0.98 -1.99,0.74 -2.08,0.50 -2.11,0.24 -2.14,-0.00 -2.10,-0.26 -2.07,-0.52 -1.98,-0.76 -1.89,-1.00 -1.74,-1.21 -1.59,-1.42 -1.40,-1.59 -1.20,-1.76 -0.98,-1.88 -0.75,-2.00 -0.75,-2.00 L -0.75,-2.00 Z"/></g><g transform="translate(24 169) rotate(0 147 -40.5)" stroke="none"><path fill="#5f3dc4" d="M 0,-2.54 Q 0,-2.54 1.44,-2.53 2.88,-2.53 4.59,-2.20 6.30,-1.87 7.67,-1.44 9.04,-1.00 10.25,-0.89 11.47,-0.77 12.51,-0.33 13.54,0.10 15.40,-0.51 17.25,-1.13 18.26,-1.53 19.28,-1.94 20.68,-2.41 22.09,-2.88 23.45,-3.15 24.81,-3.42 26.58,-4.16 28.35,-4.91 29.83,-5.86 31.32,-6.81 32.63,-7.17 33.93,-7.53 35.13,-8.10 36.33,-8.67 37.84,-9.22 39.34,-9.77 40.51,-10.12 41.68,-10.46 42.90,-10.68 44.13,-10.89 45.24,-11.39 46.35,-11.88 48.24,-12.41 50.12,-12.94 51.21,-13.00 52.29,-13.07 53.35,-13.51 54.42,-13.96 56.00,-14.27 57.58,-14.59 59.32,-15.25 61.06,-15.90 62.17,-16.20 63.28,-16.49 64.99,-16.78 66.70,-17.08 68.04,-17.52 69.37,-17.96 71.24,-18.46 73.10,-18.96 74.68,-19.60 76.26,-20.25 77.87,-20.82 79.48,-21.40 80.99,-21.92 82.51,-22.44 84.01,-22.95 85.51,-23.46 87.00,-23.97 88.50,-24.47 89.55,-25.04 90.60,-25.61 91.76,-26.21 92.91,-26.81 93.96,-27.33 95.01,-27.85 96.47,-29.18 97.94,-30.52 99.01,-31.15 100.07,-31.77 101.11,-32.32 102.14,-32.87 103.69,-33.89 105.23,-34.90 106.85,-36.45 108.46,-38.00 109.65,-38.75 110.85,-39.50 111.73,-40.22 112.61,-40.95 113.59,-41.82 114.56,-42.69 115.57,-43.63 116.58,-44.57 117.54,-45.21 118.51,-45.85 119.87,-47.27 121.23,-48.70 122.56,-49.55 123.89,-50.41 124.80,-51.37 125.71,-52.32 127.28,-53.41 128.85,-54.50 129.70,-55.41 130.56,-56.33 131.73,-57.53 132.90,-58.74 133.71,-59.69 134.51,-60.64 136.02,-62.31 137.53,-63.97 138.50,-64.61 139.47,-65.25 140.25,-65.98 141.03,-66.71 142.00,-67.66 142.96,-68.62 144.02,-69.32 145.08,-70.03 146.76,-71.47 148.44,-72.92 149.61,-73.72 150.78,-74.51 152.60,-76.19 154.42,-77.87 156.15,-79.56 157.88,-81.25 159.41,-82.31 160.94,-83.36 162.11,-84.02 163.28,-84.68 164.81,-85.25 166.33,-85.82 167.42,-85.93 168.51,-86.05 170.51,-86.09 172.51,-86.13 175.15,-86.19 177.78,-86.26 180.54,-85.41 183.30,-84.56 184.44,-83.99 185.59,-83.42 186.65,-82.90 187.72,-82.37 188.75,-81.86 189.78,-81.34 190.69,-80.75 191.61,-80.15 193.39,-78.22 195.16,-76.28 196.44,-74.93 197.71,-73.58 198.91,-71.64 200.10,-69.69 200.88,-68.77 201.65,-67.84 202.52,-66.58 203.38,-65.32 204.16,-64.17 204.95,-63.01 205.84,-62.22 206.72,-61.44 207.59,-60.61 208.45,-59.78 209.12,-58.79 209.78,-57.79 211.13,-56.42 212.48,-55.05 213.83,-54.23 215.17,-53.40 216.70,-52.19 218.23,-50.98 219.85,-49.54 221.47,-48.10 222.95,-47.08 224.43,-46.07 225.49,-45.07 226.55,-44.06 227.33,-43.25 228.11,-42.45 229.56,-40.96 231.00,-39.48 232.59,-37.50 234.18,-35.52 235.78,-33.84 237.38,-32.15 238.14,-31.27 238.91,-30.39 240.11,-29.18 241.32,-27.96 242.12,-27.14 242.92,-26.32 244.12,-25.15 245.32,-23.99 247.49,-22.70 249.65,-21.42 251.76,-20.52 253.87,-19.62 255.13,-19.43 256.39,-19.24 257.75,-18.84 259.10,-18.44 260.24,-18.32 261.38,-18.20 263.13,-17.81 264.88,-17.42 266.31,-17.33 267.74,-17.24 269.53,-17.20 271.31,-17.16 272.70,-17.18 274.09,-17.20 275.16,-17.23 276.23,-17.26 277.74,-17.30 279.25,-17.34 280.87,-17.34 282.48,-17.34 283.70,-16.87 284.92,-16.40 286.75,-15.96 288.58,-15.53 291.14,-15.50 293.69,-15.48 294.25,-15.38 294.80,-15.29 295.30,-15.02 295.80,-14.76 296.18,-14.35 296.57,-13.94 296.80,-13.43 297.04,-12.91 297.10,-12.35 297.16,-11.79 297.03,-11.25 296.91,-10.70 296.62,-10.21 296.32,-9.73 295.89,-9.37 295.46,-9.01 294.94,-8.80 294.42,-8.59 293.85,-8.57 293.29,-8.54 292.75,-8.69 292.21,-8.84 291.74,-9.16 291.28,-9.48 290.94,-9.93 290.60,-10.38 290.42,-10.91 290.24,-11.45 290.25,-12.01 290.25,-12.57 290.43,-13.11 290.61,-13.64 290.95,-14.09 291.30,-14.53 291.76,-14.85 292.23,-15.16 292.77,-15.31 293.32,-15.46 293.88,-15.42 294.44,-15.39 294.96,-15.18 295.49,-14.97 295.91,-14.61 296.34,-14.24 296.63,-13.76 296.92,-13.27 297.04,-12.72 297.16,-12.17 297.09,-11.61 297.03,-11.05 296.79,-10.54 296.55,-10.03 296.16,-9.62 295.78,-9.22 295.28,-8.96 294.78,-8.69 294.22,-8.60 293.67,-8.52 293.67,-8.52 293.67,-8.52 291.26,-8.58 288.86,-8.64 287.18,-9.16 285.51,-9.68 283.77,-10.17 282.03,-10.65 280.64,-10.65 279.25,-10.65 277.74,-10.69 276.22,-10.73 275.15,-10.76 274.07,-10.79 272.66,-10.82 271.26,-10.86 269.32,-10.88 267.39,-10.91 266.30,-10.97 265.20,-11.03 262.99,-11.50 260.77,-11.97 259.10,-12.26 257.42,-12.55 255.56,-12.98 253.69,-13.41 252.28,-13.81 250.86,-14.22 249.33,-14.89 247.79,-15.55 246.82,-16.05 245.85,-16.55 244.50,-17.37 243.15,-18.19 242.08,-18.92 241.02,-19.65 239.84,-20.88 238.66,-22.10 237.83,-22.93 236.99,-23.75 235.76,-25.09 234.52,-26.43 233.10,-28.12 231.68,-29.81 230.49,-30.82 229.30,-31.83 227.90,-33.41 226.51,-34.99 225.03,-36.43 223.55,-37.86 222.27,-39.11 220.99,-40.36 219.85,-41.48 218.70,-42.60 217.77,-43.52 216.83,-44.45 215.44,-45.48 214.05,-46.52 213.05,-47.38 212.06,-48.25 210.99,-48.90 209.92,-49.55 208.43,-51.06 206.94,-52.57 205.54,-54.11 204.14,-55.66 203.18,-56.77 202.22,-57.88 201.33,-59.19 200.45,-60.51 199.90,-61.46 199.35,-62.41 198.71,-63.77 198.06,-65.13 197.30,-66.21 196.53,-67.30 195.46,-68.74 194.39,-70.18 193.03,-71.39 191.67,-72.59 189.43,-74.37 187.19,-76.15 186.17,-76.65 185.15,-77.16 184.11,-77.67 183.06,-78.17 181.12,-79.12 179.17,-80.07 177.45,-80.32 175.72,-80.56 173.22,-80.18 170.71,-79.80 168.90,-79.71 167.09,-79.63 166.03,-79.29 164.97,-78.95 163.93,-78.42 162.90,-77.89 161.49,-76.81 160.09,-75.72 159.11,-74.53 158.13,-73.33 157.22,-72.56 156.31,-71.78 154.51,-70.08 152.71,-68.38 151.73,-67.39 150.75,-66.40 149.66,-65.45 148.58,-64.49 147.54,-63.70 146.51,-62.91 145.35,-61.86 144.19,-60.81 143.15,-60.17 142.10,-59.53 140.98,-58.25 139.85,-56.97 139.03,-55.87 138.22,-54.76 137.05,-53.90 135.89,-53.04 134.86,-52.05 133.84,-51.06 132.88,-50.18 131.91,-49.30 130.27,-48.17 128.62,-47.05 126.68,-45.44 124.75,-43.84 123.87,-42.97 122.99,-42.11 121.71,-41.32 120.44,-40.54 119.44,-39.53 118.45,-38.52 117.40,-37.51 116.36,-36.50 115.20,-35.51 114.05,-34.51 113.14,-33.92 112.24,-33.33 111.41,-32.64 110.59,-31.96 109.26,-30.72 107.94,-29.49 107.03,-28.72 106.13,-27.95 104.62,-27.26 103.10,-26.58 101.62,-25.67 100.14,-24.76 99.03,-23.66 97.91,-22.55 96.87,-21.99 95.84,-21.42 94.81,-20.83 93.77,-20.24 92.38,-19.36 90.98,-18.48 89.47,-17.98 87.96,-17.49 86.46,-17.00 84.95,-16.50 83.44,-16.01 81.92,-15.51 80.36,-14.98 78.81,-14.45 77.72,-13.96 76.64,-13.47 74.79,-12.98 72.93,-12.49 71.40,-12.01 69.86,-11.53 68.64,-11.12 67.42,-10.72 66.24,-10.57 65.07,-10.43 63.35,-10.01 61.63,-9.59 60.65,-9.04 59.68,-8.48 57.47,-8.04 55.27,-7.60 54.05,-7.17 52.84,-6.73 51.43,-6.63 50.02,-6.52 48.71,-6.09 47.41,-5.65 45.66,-5.13 43.91,-4.60 41.95,-4.14 39.98,-3.67 38.68,-3.25 37.38,-2.82 36.31,-2.33 35.25,-1.84 33.87,-1.37 32.50,-0.90 31.55,-0.33 30.60,0.23 29.48,0.70 28.35,1.18 26.14,1.74 23.92,2.30 22.64,2.78 21.35,3.27 20.09,3.77 18.83,4.27 17.41,4.70 15.99,5.14 14.31,5.35 12.64,5.56 11.66,5.06 10.67,4.55 9.03,4.17 7.40,3.79 6.37,3.41 5.34,3.02 4.10,2.77 2.86,2.53 1.43,2.53 0,2.54 -0.30,2.50 -0.60,2.47 -0.89,2.36 -1.18,2.25 -1.43,2.08 -1.68,1.90 -1.89,1.67 -2.09,1.44 -2.23,1.17 -2.38,0.90 -2.45,0.60 -2.52,0.30 -2.52,-0.00 -2.52,-0.30 -2.45,-0.60 -2.38,-0.90 -2.23,-1.17 -2.09,-1.44 -1.89,-1.67 -1.68,-1.90 -1.43,-2.08 -1.18,-2.25 -0.89,-2.36 -0.60,-2.47 -0.30,-2.50 0.00,-2.54 0.00,-2.54 L 0,-2.54 Z"/></g><g transform="translate(10 165) rotate(0 148 -23)" stroke="none"><path fill="#c92a2a" d="M -0.42,-2.56 Q -0.42,-2.56 1.30,-2.78 3.04,-3.00 4.18,-3.38 5.32,-3.76 7.03,-4.15 8.74,-4.54 10.19,-4.65 11.65,-4.76 12.62,-5.38 13.59,-6.00 15.40,-7.41 17.20,-8.83 18.42,-9.95 19.65,-11.07 20.58,-11.94 21.51,-12.81 23.14,-14.07 24.78,-15.33 25.99,-15.76 27.21,-16.18 28.22,-17.05 29.23,-17.92 30.71,-18.82 32.19,-19.72 33.39,-20.95 34.60,-22.18 35.74,-22.96 36.87,-23.73 37.90,-24.63 38.93,-25.53 40.00,-26.69 41.06,-27.86 42.01,-28.75 42.96,-29.64 43.94,-30.62 44.92,-31.60 46.27,-32.53 47.62,-33.46 48.62,-34.44 49.63,-35.42 50.40,-36.30 51.17,-37.18 52.02,-37.99 52.87,-38.80 53.94,-39.49 55.01,-40.19 56.90,-41.52 58.79,-42.84 59.63,-43.52 60.47,-44.19 61.69,-45.34 62.91,-46.48 64.42,-47.56 65.92,-48.64 66.95,-49.67 67.97,-50.70 69.42,-50.98 70.87,-51.25 72.74,-51.78 74.60,-52.31 76.16,-52.34 77.71,-52.38 80.00,-51.96 82.28,-51.54 84.10,-50.98 85.91,-50.41 87.30,-49.96 88.69,-49.50 90.25,-48.57 91.81,-47.63 93.25,-47.05 94.70,-46.47 96.72,-45.55 98.75,-44.63 99.80,-44.10 100.85,-43.57 101.78,-42.96 102.72,-42.35 104.64,-40.95 106.57,-39.55 108.45,-37.65 110.33,-35.76 111.12,-34.99 111.91,-34.22 113.28,-32.57 114.65,-30.91 116.03,-29.50 117.42,-28.09 118.86,-27.05 120.30,-26.02 122.12,-25.14 123.93,-24.25 125.20,-23.35 126.46,-22.46 128.22,-21.50 129.99,-20.54 131.81,-20.01 133.64,-19.47 134.71,-18.98 135.79,-18.49 137.49,-17.98 139.20,-17.48 141.72,-16.91 144.25,-16.34 145.66,-15.83 147.07,-15.33 148.27,-14.82 149.47,-14.31 150.92,-13.79 152.37,-13.28 153.71,-13.08 155.05,-12.88 156.47,-12.77 157.89,-12.67 159.08,-12.65 160.27,-12.63 162.62,-12.16 164.98,-11.68 166.45,-11.57 167.93,-11.45 169.55,-11.47 171.17,-11.50 172.24,-11.13 173.31,-10.75 174.52,-10.28 175.72,-9.81 177.31,-9.50 178.89,-9.19 181.08,-8.74 183.28,-8.28 184.42,-7.81 185.57,-7.33 188.08,-6.79 190.60,-6.24 192.61,-6.07 194.63,-5.90 195.82,-5.51 197.01,-5.12 198.45,-5.09 199.89,-5.06 201.05,-5.09 202.20,-5.12 203.63,-5.14 205.06,-5.17 206.55,-5.19 208.04,-5.21 209.54,-5.23 211.04,-5.24 212.44,-5.25 213.84,-5.27 215.22,-4.90 216.60,-4.53 217.76,-4.44 218.92,-4.34 220.79,-4.29 222.67,-4.24 223.93,-3.84 225.18,-3.44 226.48,-3.38 227.78,-3.31 229.69,-3.26 231.59,-3.22 233.00,-2.85 234.41,-2.49 236.32,-2.33 238.22,-2.17 239.59,-2.10 240.96,-2.03 242.41,-1.97 243.85,-1.91 245.04,-1.90 246.24,-1.89 247.32,-1.89 248.40,-1.90 250.16,-1.93 251.92,-1.97 253.47,-2.00 255.01,-2.04 256.36,-2.28 257.71,-2.51 258.94,-2.69 260.16,-2.87 262.12,-3.35 264.08,-3.82 265.21,-3.90 266.33,-3.98 268.41,-4.02 270.48,-4.06 271.78,-4.03 273.08,-4.01 274.85,-4.03 276.62,-4.06 279.00,-3.71 281.39,-3.37 283.26,-2.90 285.13,-2.43 287.29,-1.91 289.45,-1.39 290.69,-1.28 291.93,-1.17 294.04,-0.66 296.15,-0.15 296.63,0.01 297.10,0.19 297.50,0.51 297.89,0.82 298.16,1.25 298.44,1.68 298.56,2.17 298.68,2.66 298.64,3.17 298.60,3.67 298.39,4.13 298.19,4.60 297.86,4.98 297.52,5.35 297.08,5.60 296.64,5.85 296.14,5.94 295.64,6.04 295.14,5.97 294.64,5.90 294.19,5.67 293.73,5.45 293.37,5.09 293.02,4.73 292.79,4.28 292.57,3.83 292.50,3.32 292.43,2.82 292.53,2.33 292.63,1.83 292.88,1.39 293.13,0.95 293.50,0.61 293.88,0.27 294.34,0.07 294.81,-0.12 295.31,-0.16 295.82,-0.20 296.31,-0.07 296.80,0.04 297.23,0.31 297.65,0.59 297.97,0.98 298.29,1.38 298.46,1.85 298.63,2.33 298.65,2.83 298.66,3.34 298.51,3.82 298.36,4.31 298.07,4.72 297.77,5.13 297.36,5.42 296.95,5.72 296.46,5.86 295.98,6.01 295.47,6.00 294.97,5.98 294.97,5.98 294.97,5.98 293.21,5.48 291.45,4.98 290.38,4.89 289.31,4.79 287.65,4.30 286.00,3.80 284.71,3.62 283.42,3.43 281.55,2.97 279.68,2.52 278.15,2.29 276.62,2.06 274.86,2.04 273.10,2.02 271.83,2.06 270.55,2.09 268.63,2.12 266.71,2.16 265.11,2.28 263.52,2.41 261.51,2.89 259.50,3.36 257.26,3.70 255.01,4.04 253.47,4.00 251.92,3.96 250.15,3.93 248.39,3.89 247.30,3.88 246.22,3.88 245.02,3.88 243.82,3.88 242.34,3.92 240.86,3.96 239.42,3.99 237.97,4.01 236.55,3.99 235.13,3.96 233.30,3.58 231.47,3.19 229.44,3.17 227.42,3.16 226.33,3.10 225.25,3.04 223.99,2.81 222.73,2.58 221.63,2.40 220.53,2.22 218.47,2.13 216.41,2.04 215.08,1.65 213.75,1.27 212.39,1.25 211.04,1.24 209.54,1.22 208.04,1.21 206.55,1.19 205.06,1.17 203.60,1.14 202.15,1.11 200.93,1.05 199.71,0.99 198.09,0.83 196.47,0.67 195.32,0.19 194.18,-0.29 193.03,-0.37 191.89,-0.45 190.55,-0.64 189.21,-0.83 187.94,-1.13 186.66,-1.42 185.01,-1.68 183.36,-1.94 181.63,-2.62 179.89,-3.30 177.88,-3.76 175.88,-4.22 174.31,-4.70 172.75,-5.18 171.77,-5.87 170.80,-6.56 169.17,-6.74 167.54,-6.92 165.96,-7.06 164.37,-7.20 162.24,-7.34 160.11,-7.47 158.85,-7.53 157.60,-7.58 155.98,-7.66 154.36,-7.73 152.59,-7.94 150.83,-8.15 149.04,-8.62 147.24,-9.08 146.22,-9.52 145.20,-9.96 144.10,-10.33 143.00,-10.70 141.48,-10.95 139.97,-11.19 138.66,-11.40 137.35,-11.60 135.30,-12.21 133.26,-12.82 131.56,-13.53 129.87,-14.24 128.51,-14.58 127.15,-14.92 126.14,-15.42 125.13,-15.93 124.13,-16.45 123.14,-16.98 121.68,-18.02 120.22,-19.06 119.15,-19.71 118.08,-20.36 117.13,-20.87 116.18,-21.37 115.35,-22.17 114.51,-22.97 113.22,-24.30 111.92,-25.62 110.82,-26.58 109.72,-27.55 108.75,-28.79 107.78,-30.03 107.01,-30.80 106.24,-31.56 105.07,-32.58 103.89,-33.60 102.51,-34.79 101.13,-35.99 99.62,-36.93 98.10,-37.87 97.10,-38.33 96.10,-38.79 95.09,-39.21 94.09,-39.64 92.38,-40.42 90.67,-41.19 88.93,-42.07 87.20,-42.95 86.20,-43.40 85.20,-43.85 83.97,-44.28 82.74,-44.72 81.13,-45.18 79.53,-45.64 77.87,-45.59 76.20,-45.55 75.11,-45.60 74.01,-45.64 72.17,-44.80 70.33,-43.95 68.84,-42.90 67.34,-41.85 65.98,-40.58 64.62,-39.32 62.73,-37.81 60.84,-36.29 59.75,-35.33 58.67,-34.36 57.66,-33.58 56.65,-32.80 55.54,-32.20 54.43,-31.61 53.35,-30.55 52.27,-29.49 51.40,-28.67 50.52,-27.85 49.52,-26.88 48.53,-25.90 47.41,-24.85 46.28,-23.80 45.36,-23.25 44.44,-22.70 43.23,-21.21 42.02,-19.71 40.55,-18.63 39.09,-17.56 38.28,-16.75 37.48,-15.94 36.23,-15.19 34.97,-14.44 33.21,-13.27 31.45,-12.10 30.48,-11.35 29.51,-10.60 28.51,-10.21 27.51,-9.81 26.62,-9.16 25.74,-8.50 24.82,-7.55 23.90,-6.60 23.00,-5.74 22.11,-4.87 21.02,-4.17 19.93,-3.46 18.39,-2.22 16.85,-0.98 15.55,-0.47 14.25,0.04 13.09,0.42 11.94,0.80 10.64,0.78 9.34,0.76 8.07,0.86 6.80,0.97 5.33,1.41 3.85,1.85 2.14,2.21 0.42,2.56 0.11,2.58 -0.19,2.59 -0.50,2.53 -0.81,2.47 -1.09,2.33 -1.38,2.20 -1.62,2.00 -1.87,1.81 -2.05,1.56 -2.24,1.31 -2.37,1.02 -2.49,0.73 -2.54,0.42 -2.60,0.11 -2.57,-0.19 -2.55,-0.51 -2.45,-0.80 -2.35,-1.10 -2.18,-1.37 -2.02,-1.63 -1.79,-1.85 -1.57,-2.07 -1.30,-2.23 -1.02,-2.39 -0.72,-2.47 -0.42,-2.56 -0.42,-2.56 L -0.42,-2.56 Z"/></g><g transform="translate(21 165) rotate(0 155 -28.5)" stroke="none"><path fill="#2b8a3e" d="M 0.29,-1.78 Q 0.29,-1.78 2.02,-1.51 3.75,-1.24 5.54,-1.11 7.33,-0.99 9.37,-0.61 11.41,-0.23 14.30,0.56 17.19,1.35 19.45,1.68 21.70,2.01 24.00,1.88 26.29,1.75 28.51,1.70 30.72,1.66 32.23,1.53 33.74,1.41 35.40,1.10 37.07,0.78 38.27,0.32 39.47,-0.14 40.88,-0.65 42.28,-1.16 43.74,-1.68 45.19,-2.19 46.31,-2.72 47.42,-3.24 49.03,-3.56 50.63,-3.87 52.26,-4.13 53.88,-4.39 55.44,-4.51 57.01,-4.63 58.52,-4.71 60.03,-4.79 61.70,-5.27 63.37,-5.75 65.43,-5.86 67.49,-5.97 69.75,-6.36 72.01,-6.74 73.15,-6.81 74.29,-6.87 75.36,-6.90 76.42,-6.93 78.46,-6.96 80.50,-6.99 82.51,-7.00 84.51,-7.02 85.79,-6.99 87.07,-6.96 88.73,-7.37 90.39,-7.78 91.73,-7.83 93.06,-7.88 94.25,-8.33 95.45,-8.79 96.57,-9.07 97.70,-9.35 99.29,-9.71 100.88,-10.08 102.17,-10.54 103.46,-10.99 104.54,-11.30 105.63,-11.61 107.06,-12.08 108.50,-12.55 110.72,-13.23 112.95,-13.92 115.40,-14.58 117.86,-15.25 119.28,-15.46 120.71,-15.66 121.96,-15.95 123.20,-16.24 124.23,-16.63 125.25,-17.02 126.25,-17.46 127.25,-17.91 128.66,-18.40 130.07,-18.90 132.21,-19.52 134.36,-20.15 136.39,-20.48 138.42,-20.81 139.67,-20.89 140.92,-20.96 142.42,-21.51 143.92,-22.05 146.00,-22.97 148.08,-23.90 149.18,-24.42 150.29,-24.94 151.76,-25.62 153.23,-26.29 155.14,-27.05 157.04,-27.81 159.00,-28.85 160.96,-29.89 162.02,-30.41 163.07,-30.93 164.54,-31.76 166.02,-32.59 167.15,-33.20 168.28,-33.80 169.77,-34.34 171.26,-34.88 172.27,-35.55 173.27,-36.21 175.23,-37.09 177.20,-37.97 178.21,-38.62 179.22,-39.26 180.66,-40.19 182.10,-41.11 183.04,-41.92 183.98,-42.73 185.52,-43.89 187.07,-45.05 188.01,-45.88 188.96,-46.71 189.94,-47.68 190.92,-48.64 191.95,-49.31 192.97,-49.97 193.74,-51.01 194.50,-52.05 195.67,-53.26 196.84,-54.48 197.87,-55.53 198.90,-56.58 199.93,-57.62 200.97,-58.66 201.96,-59.22 202.96,-59.77 204.62,-60.41 206.29,-61.05 207.29,-61.56 208.29,-62.08 209.68,-62.25 211.07,-62.42 212.36,-62.62 213.65,-62.83 214.92,-63.02 216.19,-63.22 217.43,-63.44 218.68,-63.67 223.31,-63.69 227.94,-63.72 229.95,-63.62 231.96,-63.51 233.11,-63.56 234.26,-63.60 235.66,-63.70 237.07,-63.79 238.24,-63.83 239.41,-63.87 240.56,-63.44 241.71,-63.01 243.02,-61.97 244.33,-60.94 245.40,-59.95 246.46,-58.96 247.45,-58.00 248.44,-57.04 249.98,-56.02 251.51,-55.00 252.10,-54.03 252.69,-53.06 254.15,-52.06 255.61,-51.05 256.57,-50.11 257.53,-49.17 258.57,-48.39 259.61,-47.61 260.98,-46.60 262.35,-45.59 263.88,-44.56 265.42,-43.53 266.37,-42.94 267.32,-42.35 269.23,-41.49 271.13,-40.63 272.04,-40.03 272.96,-39.43 274.52,-37.99 276.08,-36.54 276.98,-35.60 277.87,-34.65 278.99,-33.63 280.11,-32.61 281.32,-31.86 282.53,-31.10 284.02,-29.72 285.52,-28.34 286.46,-27.77 287.40,-27.20 287.98,-26.28 288.57,-25.37 289.50,-24.79 290.43,-24.21 291.47,-23.20 292.52,-22.19 293.69,-20.64 294.85,-19.08 296.55,-18.23 298.24,-17.39 299.23,-16.90 300.22,-16.41 301.66,-15.94 303.09,-15.47 304.59,-14.97 306.09,-14.48 307.90,-14.52 309.71,-14.57 310.28,-14.47 310.85,-14.37 311.36,-14.10 311.87,-13.82 312.26,-13.40 312.65,-12.97 312.89,-12.45 313.13,-11.92 313.19,-11.35 313.24,-10.77 313.11,-10.21 312.98,-9.65 312.68,-9.16 312.38,-8.66 311.94,-8.29 311.49,-7.92 310.96,-7.71 310.42,-7.51 309.84,-7.48 309.26,-7.45 308.71,-7.61 308.15,-7.77 307.68,-8.10 307.20,-8.43 306.86,-8.89 306.51,-9.35 306.33,-9.90 306.15,-10.45 306.16,-11.03 306.16,-11.61 306.35,-12.15 306.54,-12.70 306.90,-13.15 307.25,-13.61 307.73,-13.93 308.21,-14.25 308.77,-14.40 309.33,-14.55 309.90,-14.51 310.48,-14.48 311.01,-14.26 311.55,-14.04 311.98,-13.66 312.42,-13.28 312.71,-12.79 313.01,-12.29 313.13,-11.72 313.25,-11.16 313.18,-10.59 313.11,-10.01 312.86,-9.49 312.62,-8.97 312.22,-8.55 311.82,-8.14 311.30,-7.87 310.79,-7.61 310.22,-7.52 309.65,-7.43 309.65,-7.43 309.65,-7.43 307.00,-7.59 304.35,-7.76 302.85,-8.27 301.35,-8.78 299.80,-9.31 298.26,-9.85 297.22,-10.37 296.19,-10.89 295.17,-11.41 294.14,-11.94 293.00,-12.55 291.85,-13.17 290.84,-13.84 289.84,-14.50 288.81,-15.91 287.78,-17.31 286.38,-18.65 284.99,-19.99 283.56,-21.42 282.13,-22.85 280.57,-24.05 279.02,-25.25 278.00,-26.28 276.98,-27.31 276.12,-28.09 275.27,-28.87 274.33,-29.45 273.40,-30.02 272.45,-30.88 271.50,-31.75 269.93,-33.11 268.36,-34.47 266.71,-35.13 265.06,-35.80 263.58,-36.79 262.11,-37.78 260.63,-38.78 259.14,-39.78 257.61,-40.78 256.08,-41.79 254.45,-43.05 252.81,-44.30 251.36,-45.79 249.90,-47.28 248.92,-47.93 247.94,-48.58 246.96,-49.97 245.98,-51.35 244.50,-52.42 243.02,-53.48 242.06,-54.48 241.10,-55.48 240.22,-56.36 239.34,-57.25 238.22,-57.72 237.10,-58.19 235.74,-58.25 234.37,-58.32 233.24,-58.32 232.11,-58.32 230.12,-58.10 228.13,-57.88 224.69,-57.64 221.25,-57.41 220.05,-56.97 218.84,-56.54 217.42,-56.42 216.01,-56.31 214.17,-55.90 212.33,-55.50 211.24,-55.57 210.15,-55.65 209.11,-55.15 208.06,-54.65 206.34,-53.78 204.61,-52.90 203.59,-51.90 202.58,-50.90 201.54,-49.85 200.50,-48.81 199.38,-47.60 198.26,-46.39 197.47,-45.47 196.68,-44.54 195.59,-43.70 194.51,-42.86 193.32,-41.77 192.12,-40.68 190.80,-39.76 189.48,-38.85 188.26,-37.75 187.04,-36.65 185.53,-35.65 184.03,-34.64 182.45,-33.64 180.87,-32.64 179.10,-31.73 177.33,-30.83 176.13,-30.28 174.92,-29.73 173.52,-29.14 172.12,-28.55 171.04,-28.19 169.97,-27.83 168.82,-27.27 167.68,-26.71 166.78,-26.10 165.88,-25.49 164.87,-24.96 163.87,-24.42 162.85,-23.85 161.84,-23.29 159.91,-22.34 157.98,-21.40 157.01,-20.90 156.04,-20.40 155.08,-19.93 154.11,-19.46 152.90,-19.04 151.70,-18.62 149.80,-17.70 147.90,-16.79 145.78,-16.32 143.66,-15.86 142.52,-15.43 141.37,-14.99 140.11,-14.99 138.85,-14.98 137.44,-14.86 136.02,-14.73 134.02,-14.19 132.02,-13.64 130.80,-13.16 129.58,-12.67 128.43,-12.17 127.29,-11.66 125.99,-11.16 124.68,-10.66 123.14,-10.22 121.61,-9.77 120.55,-9.60 119.49,-9.43 118.07,-8.93 116.65,-8.43 114.81,-7.90 112.98,-7.38 111.99,-6.90 111.01,-6.43 109.52,-5.94 108.03,-5.46 106.45,-5.10 104.87,-4.74 103.71,-4.27 102.56,-3.79 101.47,-3.76 100.38,-3.72 99.21,-3.29 98.04,-2.86 96.98,-2.80 95.91,-2.73 94.67,-2.35 93.42,-1.96 91.74,-1.83 90.07,-1.71 88.59,-1.37 87.12,-1.03 84.82,-1.01 82.52,-0.98 80.53,-0.99 78.53,-0.99 76.56,-0.98 74.60,-0.96 72.69,-0.82 70.78,-0.68 68.30,-0.30 65.81,0.06 64.69,0.03 63.56,0.00 61.80,0.40 60.04,0.79 58.55,0.72 57.06,0.65 55.61,0.58 54.16,0.50 52.73,0.49 51.30,0.49 50.16,0.60 49.02,0.70 47.74,1.16 46.45,1.63 44.97,2.08 43.48,2.53 42.02,2.95 40.57,3.37 39.10,3.73 37.63,4.09 35.72,4.38 33.80,4.66 32.31,4.60 30.81,4.53 28.65,4.62 26.48,4.71 23.90,4.89 21.32,5.08 18.86,4.80 16.39,4.52 13.60,3.87 10.81,3.22 8.95,2.92 7.09,2.63 5.12,2.51 3.14,2.39 1.42,2.08 -0.29,1.78 -0.50,1.72 -0.71,1.66 -0.90,1.55 -1.09,1.44 -1.24,1.28 -1.40,1.13 -1.52,0.95 -1.63,0.76 -1.70,0.56 -1.77,0.35 -1.78,0.13 -1.80,-0.08 -1.77,-0.29 -1.73,-0.51 -1.64,-0.71 -1.56,-0.91 -1.43,-1.08 -1.29,-1.25 -1.12,-1.39 -0.96,-1.53 -0.76,-1.62 -0.56,-1.71 -0.35,-1.76 -0.13,-1.80 0.07,-1.79 0.29,-1.78 0.29,-1.78 L 0.29,-1.78 Z"/></g></svg>